<svg class="svg-icon" style="width: 1em; height: 1em;vertical-align: middle;fill: currentColor;overflow: hidden;" viewBox="0 0 1024 1024" version="1.1" xmlns="http://www.w3.org/2000/svg"><path d="M709.818182 349.090909H623.709091v-44.218182c0-23.272727-18.618182-41.890909-41.890909-41.890909h-141.963637c-23.272727 0-41.890909 18.618182-41.890909 41.890909V349.090909H311.854545c-23.272727 0-41.890909 18.618182-41.890909 41.890909v374.690909c0 23.272727 18.618182 41.890909 41.890909 41.890909h79.127273c9.309091 0 16.290909-2.327273 23.272727-6.981818 6.981818 4.654545 13.963636 6.981818 23.272728 6.981818h141.963636c9.309091 0 16.290909-2.327273 23.272727-6.981818 6.981818 4.654545 13.963636 6.981818 23.272728 6.981818h79.127272c23.272727 0 41.890909-18.618182 41.890909-41.890909V390.981818c4.654545-23.272727-13.963636-41.890909-37.236363-41.890909zM393.309091 770.327273h-79.127273c-2.327273 0-6.981818-2.327273-6.981818-6.981818v-372.363637c0-2.327273 2.327273-6.981818 6.981818-6.981818h79.127273c2.327273 0 6.981818 2.327273 6.981818 6.981818v374.690909c0 2.327273-2.327273 4.654545-6.981818 4.654546z m190.836364 0H442.181818c-2.327273 0-6.981818-2.327273-6.981818-6.981818V307.2c0-2.327273 2.327273-6.981818 6.981818-6.981818h141.963637c2.327273 0 6.981818 2.327273 6.981818 6.981818V765.672727c-2.327273 2.327273-4.654545 4.654545-6.981818 4.654546z m132.654545-4.654546c0 2.327273-2.327273 6.981818-6.981818 6.981818h-79.127273c-2.327273 0-6.981818-2.327273-6.981818-6.981818V390.981818c0-2.327273 2.327273-6.981818 6.981818-6.981818h79.127273c2.327273 0 6.981818 2.327273 6.981818 6.981818v374.690909z" fill="" /></svg>